# xmcd
#
# Track frame offsets:
#	150
#	21425
#	38375
#	52850
#	76925
#	93650
#	107225
#	132725
#	153350
#	168050
#
# Disc length: 2513 seconds
#
# Revision: 0
# Processed by: cddbd v1.5.1PL0 Copyright (c) Steve Scherf et al.
# Submitted via: dBpowerAMP V4.0
#
DISCID=7309cf0a
DTITLE=Oscar Klein - SWINGTIME
DYEAR=1989
DGENRE=blues
TTITLE0=Sweet Georgia Brown
TTITLE1=Echoes Of Harlem
TTITLE2=Money Can By You Good Things 
TTITLE3=I Want a Lilttle Girl
TTITLE4=Il Conte
TTITLE5=Stompy Jones
TTITLE6=Don,t Get Around Much Anymore
TTITLE7=Leavin, This City
TTITLE8=Buggy Wuggy
TTITLE9=Dear Old Southland
EXTD=SWINGTIME\n
EXTT0=
EXTT1=
EXTT2=
EXTT3=
EXTT4=
EXTT5=
EXTT6=
EXTT7=
EXTT8=
EXTT9=
PLAYORDER=
